<svg id="visual" viewBox="0 0 1920 1080" width="1920" height="1080" xmlns="http://www.w3.org/2000/svg" xmlns:xlink="http://www.w3.org/1999/xlink" version="1.1"><rect x="0" y="0" width="1920" height="1080" fill="#FFFFFF"></rect><defs><linearGradient id="grad1_0" x1="43.8%" y1="0%" x2="100%" y2="100%"><stop offset="14.444444444444446%" stop-color="#a8a89e" stop-opacity="1"></stop><stop offset="85.55555555555554%" stop-color="#a8a89e" stop-opacity="1"></stop></linearGradient></defs><defs><linearGradient id="grad1_1" x1="43.8%" y1="0%" x2="100%" y2="100%"><stop offset="14.444444444444446%" stop-color="#a8a89e" stop-opacity="1"></stop><stop offset="85.55555555555554%" stop-color="#b9b9b1" stop-opacity="1"></stop></linearGradient></defs><defs><linearGradient id="grad1_2" x1="43.8%" y1="0%" x2="100%" y2="100%"><stop offset="14.444444444444446%" stop-color="#cacac4" stop-opacity="1"></stop><stop offset="85.55555555555554%" stop-color="#b9b9b1" stop-opacity="1"></stop></linearGradient></defs><defs><linearGradient id="grad1_3" x1="43.8%" y1="0%" x2="100%" y2="100%"><stop offset="14.444444444444446%" stop-color="#cacac4" stop-opacity="1"></stop><stop offset="85.55555555555554%" stop-color="#dbdbd7" stop-opacity="1"></stop></linearGradient></defs><defs><linearGradient id="grad1_4" x1="43.8%" y1="0%" x2="100%" y2="100%"><stop offset="14.444444444444446%" stop-color="#ededeb" stop-opacity="1"></stop><stop offset="85.55555555555554%" stop-color="#dbdbd7" stop-opacity="1"></stop></linearGradient></defs><defs><linearGradient id="grad1_5" x1="43.8%" y1="0%" x2="100%" y2="100%"><stop offset="14.444444444444446%" stop-color="#ededeb" stop-opacity="1"></stop><stop offset="85.55555555555554%" stop-color="#ffffff" stop-opacity="1"></stop></linearGradient></defs><defs><linearGradient id="grad2_0" x1="0%" y1="0%" x2="56.3%" y2="100%"><stop offset="14.444444444444446%" stop-color="#a8a89e" stop-opacity="1"></stop><stop offset="85.55555555555554%" stop-color="#a8a89e" stop-opacity="1"></stop></linearGradient></defs><defs><linearGradient id="grad2_1" x1="0%" y1="0%" x2="56.3%" y2="100%"><stop offset="14.444444444444446%" stop-color="#b9b9b1" stop-opacity="1"></stop><stop offset="85.55555555555554%" stop-color="#a8a89e" stop-opacity="1"></stop></linearGradient></defs><defs><linearGradient id="grad2_2" x1="0%" y1="0%" x2="56.3%" y2="100%"><stop offset="14.444444444444446%" stop-color="#b9b9b1" stop-opacity="1"></stop><stop offset="85.55555555555554%" stop-color="#cacac4" stop-opacity="1"></stop></linearGradient></defs><defs><linearGradient id="grad2_3" x1="0%" y1="0%" x2="56.3%" y2="100%"><stop offset="14.444444444444446%" stop-color="#dbdbd7" stop-opacity="1"></stop><stop offset="85.55555555555554%" stop-color="#cacac4" stop-opacity="1"></stop></linearGradient></defs><defs><linearGradient id="grad2_4" x1="0%" y1="0%" x2="56.3%" y2="100%"><stop offset="14.444444444444446%" stop-color="#dbdbd7" stop-opacity="1"></stop><stop offset="85.55555555555554%" stop-color="#ededeb" stop-opacity="1"></stop></linearGradient></defs><defs><linearGradient id="grad2_5" x1="0%" y1="0%" x2="56.3%" y2="100%"><stop offset="14.444444444444446%" stop-color="#ffffff" stop-opacity="1"></stop><stop offset="85.55555555555554%" stop-color="#ededeb" stop-opacity="1"></stop></linearGradient></defs><g transform="translate(1920, 0)"><path d="M0 972C-113.7 922.6 -227.4 873.1 -344 830.6C-460.6 788 -580.1 752.3 -678.1 678.1C-776.1 604 -852.6 491.4 -898 372C-943.4 252.5 -957.7 126.3 -972 0L0 0Z" fill="#f6f6f5"></path><path d="M0 810C-94.8 768.8 -189.5 727.6 -286.7 692.1C-383.9 656.7 -483.4 626.9 -565.1 565.1C-646.8 503.3 -710.5 409.5 -748.3 310C-786.2 210.5 -798.1 105.2 -810 0L0 0Z" fill="#e4e4e1"></path><path d="M0 648C-75.8 615 -151.6 582.1 -229.4 553.7C-307.1 525.3 -386.7 501.5 -452.1 452.1C-517.4 402.6 -568.4 327.6 -598.7 248C-628.9 168.4 -638.5 84.2 -648 0L0 0Z" fill="#d3d3cd"></path><path d="M0 486C-56.9 461.3 -113.7 436.6 -172 415.3C-230.3 394 -290.1 376.1 -339.1 339.1C-388.1 302 -426.3 245.7 -449 186C-471.7 126.3 -478.9 63.1 -486 0L0 0Z" fill="#c1c1ba"></path><path d="M0 324C-37.9 307.5 -75.8 291 -114.7 276.9C-153.5 262.7 -193.4 250.8 -226 226C-258.7 201.3 -284.2 163.8 -299.3 124C-314.5 84.2 -319.2 42.1 -324 0L0 0Z" fill="#b0b0a7"></path><path d="M0 162C-19 153.8 -37.9 145.5 -57.3 138.4C-76.8 131.3 -96.7 125.4 -113 113C-129.4 100.7 -142.1 81.9 -149.7 62C-157.2 42.1 -159.6 21 -162 0L0 0Z" fill="#a8a89e"></path></g><g transform="translate(0, 1080)"><path d="M0 -972C103 -903 205.9 -834 330.6 -798.2C455.4 -762.5 601.9 -760 687.3 -687.3C772.7 -614.6 797 -471.8 834.3 -345.6C871.5 -219.3 921.8 -109.7 972 0L0 0Z" fill="#f6f6f5"></path><path d="M0 -810C85.8 -752.5 171.6 -695 275.5 -665.2C379.5 -635.4 501.6 -633.3 572.8 -572.8C643.9 -512.2 664.2 -393.2 695.2 -288C726.3 -182.8 768.1 -91.4 810 0L0 0Z" fill="#e4e4e1"></path><path d="M0 -648C68.6 -602 137.3 -556 220.4 -532.2C303.6 -508.3 401.3 -506.6 458.2 -458.2C515.1 -409.8 531.3 -314.5 556.2 -230.4C581 -146.2 614.5 -73.1 648 0L0 0Z" fill="#d3d3cd"></path><path d="M0 -486C51.5 -451.5 103 -417 165.3 -399.1C227.7 -381.2 301 -380 343.7 -343.7C386.4 -307.3 398.5 -235.9 417.1 -172.8C435.8 -109.7 460.9 -54.8 486 0L0 0Z" fill="#c1c1ba"></path><path d="M0 -324C34.3 -301 68.6 -278 110.2 -266.1C151.8 -254.2 200.6 -253.3 229.1 -229.1C257.6 -204.9 265.7 -157.3 278.1 -115.2C290.5 -73.1 307.3 -36.6 324 0L0 0Z" fill="#b0b0a7"></path><path d="M0 -162C17.2 -150.5 34.3 -139 55.1 -133C75.9 -127.1 100.3 -126.7 114.6 -114.6C128.8 -102.4 132.8 -78.6 139 -57.6C145.3 -36.6 153.6 -18.3 162 0L0 0Z" fill="#a8a89e"></path></g></svg>