<svg id="visual" viewBox="0 0 1920 1080" width="1920" height="1080" xmlns="http://www.w3.org/2000/svg" xmlns:xlink="http://www.w3.org/1999/xlink" version="1.1"><rect x="0" y="0" width="1920" height="1080" fill="#eee"></rect><defs><linearGradient id="grad1_0" x1="43.8%" y1="0%" x2="100%" y2="100%"><stop offset="14.444444444444446%" stop-color="#bbbbbb" stop-opacity="1"></stop><stop offset="85.55555555555554%" stop-color="#bbbbbb" stop-opacity="1"></stop></linearGradient></defs><defs><linearGradient id="grad1_1" x1="43.8%" y1="0%" x2="100%" y2="100%"><stop offset="14.444444444444446%" stop-color="#bbbbbb" stop-opacity="1"></stop><stop offset="85.55555555555554%" stop-color="#d4d4d4" stop-opacity="1"></stop></linearGradient></defs><defs><linearGradient id="grad1_2" x1="43.8%" y1="0%" x2="100%" y2="100%"><stop offset="14.444444444444446%" stop-color="#eeeeee" stop-opacity="1"></stop><stop offset="85.55555555555554%" stop-color="#d4d4d4" stop-opacity="1"></stop></linearGradient></defs><defs><linearGradient id="grad2_0" x1="0%" y1="0%" x2="56.3%" y2="100%"><stop offset="14.444444444444446%" stop-color="#bbbbbb" stop-opacity="1"></stop><stop offset="85.55555555555554%" stop-color="#bbbbbb" stop-opacity="1"></stop></linearGradient></defs><defs><linearGradient id="grad2_1" x1="0%" y1="0%" x2="56.3%" y2="100%"><stop offset="14.444444444444446%" stop-color="#d4d4d4" stop-opacity="1"></stop><stop offset="85.55555555555554%" stop-color="#bbbbbb" stop-opacity="1"></stop></linearGradient></defs><defs><linearGradient id="grad2_2" x1="0%" y1="0%" x2="56.3%" y2="100%"><stop offset="14.444444444444446%" stop-color="#d4d4d4" stop-opacity="1"></stop><stop offset="85.55555555555554%" stop-color="#eeeeee" stop-opacity="1"></stop></linearGradient></defs><g transform="translate(1920, 0)"><path d="M0 972C-135.4 967.5 -270.8 963.1 -372 898C-473.1 833 -539.9 707.3 -606 606C-672.1 504.6 -737.4 427.6 -798.2 330.6C-859.1 233.7 -915.6 116.8 -972 0L0 0Z" fill="#e1e1e1"></path><path d="M0 648C-90.3 645 -180.6 642 -248 598.7C-315.4 555.3 -359.9 471.6 -404 404C-448 336.4 -491.6 285.1 -532.2 220.4C-572.7 155.8 -610.4 77.9 -648 0L0 0Z" fill="#c8c8c8"></path><path d="M0 324C-45.1 322.5 -90.3 321 -124 299.3C-157.7 277.7 -180 235.8 -202 202C-224 168.2 -245.8 142.5 -266.1 110.2C-286.4 77.9 -305.2 38.9 -324 0L0 0Z" fill="#bbbbbb"></path></g><g transform="translate(0, 1080)"><path d="M0 -972C98.6 -897.9 197.3 -823.9 327.6 -790.8C457.9 -757.8 619.8 -765.9 687.3 -687.3C754.8 -608.7 727.7 -443.6 759.4 -314.6C791.1 -185.6 881.6 -92.8 972 0L0 0Z" fill="#e1e1e1"></path><path d="M0 -648C65.8 -598.6 131.5 -549.2 218.4 -527.2C305.3 -505.2 413.2 -510.6 458.2 -458.2C503.2 -405.8 485.2 -295.7 506.3 -209.7C527.4 -123.7 587.7 -61.9 648 0L0 0Z" fill="#c8c8c8"></path><path d="M0 -324C32.9 -299.3 65.8 -274.6 109.2 -263.6C152.6 -252.6 206.6 -255.3 229.1 -229.1C251.6 -202.9 242.6 -147.9 253.1 -104.9C263.7 -61.9 293.9 -30.9 324 0L0 0Z" fill="#bbbbbb"></path></g></svg>