<svg id="visual" viewBox="0 0 1920 600" width="1920" height="600" xmlns="http://www.w3.org/2000/svg" xmlns:xlink="http://www.w3.org/1999/xlink" version="1.1"><rect x="0" y="0" width="1920" height="600" fill="#001220"></rect><defs><linearGradient id="grad1_0" x1="68.8%" y1="0%" x2="100%" y2="100%"><stop offset="-14.000000000000007%" stop-color="#001220" stop-opacity="1"></stop><stop offset="114.00000000000001%" stop-color="#001220" stop-opacity="1"></stop></linearGradient></defs><defs><linearGradient id="grad2_0" x1="0%" y1="0%" x2="31.3%" y2="100%"><stop offset="-14.000000000000007%" stop-color="#001220" stop-opacity="1"></stop><stop offset="114.00000000000001%" stop-color="#001220" stop-opacity="1"></stop></linearGradient></defs><g transform="translate(1920, 0)"><path d="M0 540C-79.3 541 -158.6 542.1 -206.6 498.9C-254.7 455.7 -271.5 368.3 -314.7 314.7C-357.8 261 -427.4 241.2 -469.3 194.4C-511.3 147.6 -525.6 73.8 -540 0L0 0Z" fill="#84817b"></path></g><g transform="translate(0, 600)"><path d="M0 -540C70.8 -533.4 141.6 -526.8 206.6 -498.9C271.7 -471 330.9 -421.9 364.2 -364.2C397.4 -306.4 404.6 -240.1 429.6 -177.9C454.6 -115.8 497.3 -57.9 540 0L0 0Z" fill="#84817b"></path></g></svg>