<svg id="visual" viewBox="0 0 1920 1080" width="1920" height="1080" xmlns="http://www.w3.org/2000/svg" xmlns:xlink="http://www.w3.org/1999/xlink" version="1.1"><rect x="0" y="0" width="1920" height="1080" fill="#001220"></rect><defs><linearGradient id="grad1_0" x1="43.8%" y1="0%" x2="100%" y2="100%"><stop offset="14.444444444444446%" stop-color="#001220" stop-opacity="1"></stop><stop offset="85.55555555555554%" stop-color="#001220" stop-opacity="1"></stop></linearGradient></defs><defs><linearGradient id="grad2_0" x1="0%" y1="0%" x2="56.3%" y2="100%"><stop offset="14.444444444444446%" stop-color="#001220" stop-opacity="1"></stop><stop offset="85.55555555555554%" stop-color="#001220" stop-opacity="1"></stop></linearGradient></defs><g transform="translate(1920, 0)"><path d="M0 972C-109.4 887.5 -218.7 803 -303.5 732.6C-388.2 662.3 -448.4 606.2 -556.5 556.5C-664.6 506.8 -820.8 463.6 -898 372C-975.3 280.3 -973.6 140.1 -972 0L0 0Z" fill="#b4b4b4"></path></g><g transform="translate(0, 1080)"><path d="M0 -972C134.5 -960.5 269 -948.9 366.6 -885.1C464.2 -821.2 525 -705.1 617.3 -617.3C709.7 -529.5 833.6 -470.1 898 -372C962.4 -273.8 967.2 -136.9 972 0L0 0Z" fill="#b4b4b4"></path></g></svg>